<?xml version="1.0" encoding="UTF-8" standalone="no"?>
<!-- Created with Inkscape (http://www.inkscape.org/) -->

<svg
   width="100"
   height="100"
   viewBox="0 0 26.458333 26.458333"
   version="1.1"
   id="svg1"
   xml:space="preserve"
   xmlns="http://www.w3.org/2000/svg"
   xmlns:svg="http://www.w3.org/2000/svg"><defs
     id="defs1" /><g
     id="layer1"><g
       id="g7"
       transform="matrix(0.09288565,0,0,0.09288565,0.09217307,0.32009521)">
	<path
   style="fill:#000002"
   d="m 143.25,55.486 c -41.06,0 -74.465,33.405 -74.465,74.465 0,16.824 5.511,32.711 15.938,45.939 1.998,2.536 4.15,5.033 6.23,7.448 6.212,7.208 12.078,14.017 14.166,21.675 0.045,0.165 0.438,1.773 0.38,7.247 l -0.01,0.791 c -0.063,4.444 -0.147,10.528 4.352,15.091 3.081,3.125 7.399,4.645 13.204,4.645 h 40.272 c 6.268,0 10.774,-1.534 13.776,-4.689 4.061,-4.267 3.789,-9.779 3.608,-13.427 -0.032,-0.645 -0.066,-1.296 -0.074,-1.944 -0.065,-5.48 0.345,-7.025 0.362,-7.09 2.121,-7.657 8.993,-15.732 15.057,-22.855 2.023,-2.377 3.934,-4.622 5.714,-6.879 10.431,-13.23 15.944,-29.12 15.944,-45.951 0.001,-41.06 -33.399,-74.466 -74.454,-74.466 z m 46.732,111.128 c -1.607,2.036 -3.429,4.178 -5.358,6.445 -7.07,8.307 -15.084,17.722 -18.089,28.572 -0.429,1.546 -0.988,4.395 -0.905,11.273 0.01,0.835 0.049,1.675 0.091,2.507 0.032,0.657 0.075,1.523 0.071,2.209 -0.528,0.086 -1.325,0.166 -2.475,0.166 h -40.272 c -1.276,0 -2.022,-0.135 -2.405,-0.237 -0.198,-0.977 -0.17,-3.007 -0.152,-4.287 l 0.012,-0.844 c 0.072,-6.919 -0.483,-9.789 -0.907,-11.348 -2.98,-10.936 -10.575,-19.749 -17.275,-27.524 -2.066,-2.398 -4.019,-4.664 -5.813,-6.942 -8.32,-10.557 -12.718,-23.232 -12.718,-36.654 0,-32.789 26.676,-59.465 59.465,-59.465 32.783,0 59.455,26.676 59.455,59.465 -0.002,13.429 -4.401,26.108 -12.725,36.664 z"
   id="path1" />
	<path
   style="fill:#000002"
   d="m 161.766,239.564 h -37.041 c -7.995,0 -14.5,6.505 -14.5,14.5 v 11.117 c 0,7.995 6.505,14.5 14.5,14.5 h 37.041 c 7.995,0 14.5,-6.505 14.5,-14.5 v -11.117 c 0,-7.995 -6.505,-14.5 -14.5,-14.5 z m -0.5,25.118 h -36.041 v -10.117 h 36.041 z"
   id="path2" />
	
	
	
	
	
</g></g></svg>
